<svg width="64" height="64" viewBox="0 0 64 64" fill="none" xmlns="http://www.w3.org/2000/svg">
<g filter="url(#filter0_b_112_7668)">
<g clip-path="url(#clip0_112_7668)">
<path fill-rule="evenodd" clip-rule="evenodd" d="M32 64C49.6731 64 64 49.6731 64 32C64 14.3269 49.6731 0 32 0C14.3269 0 0 14.3269 0 32C0 49.6731 14.3269 64 32 64ZM40 12H20V16H16V20H12V24H8V44H12V48H20V52H40V44H48V40H52V36H56V24H52V20H48V16H40V12ZM12 32V28H16V32H12ZM12 40V36H16V40H12ZM40 28H48V36H40V28ZM24 40V44H20V40H24ZM28 16H32V20H28V16ZM20 20V24H24V20H20Z" fill="#D9D9D9"/>
</g>
</g>
<defs>
<filter id="filter0_b_112_7668" x="-2" y="-2" width="68" height="68" filterUnits="userSpaceOnUse" color-interpolation-filters="sRGB">
<feFlood flood-opacity="0" result="BackgroundImageFix"/>
<feGaussianBlur in="BackgroundImageFix" stdDeviation="1"/>
<feComposite in2="SourceAlpha" operator="in" result="effect1_backgroundBlur_112_7668"/>
<feBlend mode="normal" in="SourceGraphic" in2="effect1_backgroundBlur_112_7668" result="shape"/>
</filter>
<clipPath id="clip0_112_7668">
<rect width="64" height="64" rx="32" fill="white"/>
</clipPath>
</defs>
</svg>
