<svg width="64" height="64" viewBox="0 0 64 64" fill="none" xmlns="http://www.w3.org/2000/svg">
<g id="1" filter="url(#filter0_b_104_7652)">
<g id="Frame 479">
<path id="Union" fill-rule="evenodd" clip-rule="evenodd" d="M20 12H40V16H48V20H52V24H56V36H52V40H48V44H40V52H20V48H12V44H8V24H12V20H16V16H20V12ZM32 48V44H28V48H32ZM12 28V32H16V28H12ZM12 36V40H16V36H12ZM48 36V28H40V36H48ZM24 44V40H20V44H24ZM32 16H28V20H32V16ZM20 24V20H24V24H20Z" fill="black"/>
<g id="Union_2">
<path d="M20 12H28V16H24V20H20V24H16V28H12V32H8V24H12V20H16V16H20V12Z" fill="#FF0000">
                                    <animate attributeName="fill" values="#FF0000;#FF00FF;#0000FF;#00FF00;#FFFF00;#FF8000;#FF0000" begin="0s" dur="3s" repeatCount="indefinite" fill="freeze" calcMode="linear" keyTimes="0;0.167;0.333;0.5;0.667;0.833;1"/></path>
<path d="M44 40H40V44H36V48H32V52H40V44H48V40H52V36H56V28H52V32H48V36H44V40Z" fill="#FF0000">
                                    <animate attributeName="fill" values="#FF0000;#FF00FF;#0000FF;#00FF00;#FFFF00;#FF8000;#FF0000" begin="0s" dur="3s" repeatCount="indefinite" fill="freeze" calcMode="linear" keyTimes="0;0.167;0.333;0.5;0.667;0.833;1"/></path>
</g>
<g id="Union_3">
<path d="M36 12H40V20H36V24H32V28H28V32H24V36H20V40H16V32H20V28H24V24H28V20H32V16H36V12Z" fill="#FFFF00">
                                    <animate attributeName="fill" values="#FFFF00;#FF8000;#FF0000;#FF00FF;#0000FF;#00FF00;#FFFF00" begin="0s" dur="3s" repeatCount="indefinite" fill="freeze" calcMode="linear" keyTimes="0;0.167;0.333;0.5;0.667;0.833;1"/></path>
<path d="M16 40H8V44H16V40Z" fill="#FFFF00">
                                    <animate attributeName="fill" values="#FFFF00;#FF8000;#FF0000;#FF00FF;#0000FF;#00FF00;#FFFF00" begin="0s" dur="3s" repeatCount="indefinite" fill="freeze" calcMode="linear" keyTimes="0;0.167;0.333;0.5;0.667;0.833;1"/></path>
</g>
<path id="Union_4" d="M48 16H40V20H36V24H32V28H28V32H24V36H20V40H16V44H12V48H20V40H28V36H32V32H36V28H40V24H44V20H48V16Z" fill="#00FF00">
                                    <animate attributeName="fill" values="#00FF00;#FFFF00;#FF8000;#FF0000;#FF00FF;#0000FF;#00FF00" begin="0s" dur="3s" repeatCount="indefinite" fill="freeze" calcMode="linear" keyTimes="0;0.167;0.333;0.5;0.667;0.833;1"/></path>
<path id="Union_5" d="M52 20H44V24H40V28H36V32H32V36H28V40H24V44H20V52H24V48H28V44H32V40H36V36H40V28H48V24H52V20Z" fill="#0000FF">
                                    <animate attributeName="fill" values="#0000FF;#00FF00;#FFFF00;#FF8000;#FF0000;#FF00FF;#0000FF" begin="0s" dur="3s" repeatCount="indefinite" fill="freeze" calcMode="linear" keyTimes="0;0.167;0.333;0.5;0.667;0.833;1"/></path>
<g id="Union_6">
<path d="M56 24H48V32H52V28H56V24Z" fill="#FF00FF">
                                    <animate attributeName="fill" values="#FF00FF;#0000FF;#00FF00;#FFFF00;#FF8000;#FF0000;#FF00FF" begin="0s" dur="3s" repeatCount="indefinite" fill="freeze" calcMode="linear" keyTimes="0;0.167;0.333;0.5;0.667;0.833;1"/></path>
<path d="M36 40H32V44H28V48H24V52H32V48H36V44H40V40H44V36H36V40Z" fill="#FF00FF">
                                    <animate attributeName="fill" values="#FF00FF;#0000FF;#00FF00;#FFFF00;#FF8000;#FF0000;#FF00FF" begin="0s" dur="3s" repeatCount="indefinite" fill="freeze" calcMode="linear" keyTimes="0;0.167;0.333;0.5;0.667;0.833;1"/></path>
</g>
<g id="Union_7">
<path d="M16 32V24H24V28H20V32H16Z" fill="#FF8000">
                                    <animate attributeName="fill" values="#FF8000;#FF0000;#FF00FF;#0000FF;#00FF00;#FFFF00;#FF8000" begin="0s" dur="3s" repeatCount="indefinite" fill="freeze" calcMode="linear" keyTimes="0;0.167;0.333;0.5;0.667;0.833;1"/></path>
<path d="M16 32V36H12V40H8V32H16Z" fill="#FF8000">
                                    <animate attributeName="fill" values="#FF8000;#FF0000;#FF00FF;#0000FF;#00FF00;#FFFF00;#FF8000" begin="0s" dur="3s" repeatCount="indefinite" fill="freeze" calcMode="linear" keyTimes="0;0.167;0.333;0.5;0.667;0.833;1"/></path>
<path d="M28 24V20V16H24V24H28Z" fill="#FF8000">
                                    <animate attributeName="fill" values="#FF8000;#FF0000;#FF00FF;#0000FF;#00FF00;#FFFF00;#FF8000" begin="0s" dur="3s" repeatCount="indefinite" fill="freeze" calcMode="linear" keyTimes="0;0.167;0.333;0.5;0.667;0.833;1"/></path>
<path d="M36 12H28V16H32H36V12Z" fill="#FF8000">
                                    <animate attributeName="fill" values="#FF8000;#FF0000;#FF00FF;#0000FF;#00FF00;#FFFF00;#FF8000" begin="0s" dur="3s" repeatCount="indefinite" fill="freeze" calcMode="linear" keyTimes="0;0.167;0.333;0.5;0.667;0.833;1"/></path>
</g>
</g>

                                    </g>
<defs>
<filter id="filter0_b_104_7652" x="-2" y="-2" width="68" height="68" filterUnits="userSpaceOnUse" color-interpolation-filters="sRGB">
<feFlood flood-opacity="0" result="BackgroundImageFix"/>
<feGaussianBlur in="BackgroundImageFix" stdDeviation="1"/>
<feComposite in2="SourceAlpha" operator="in" result="effect1_backgroundBlur_104_7652">
                                    </feComposite>
<feBlend mode="normal" in="SourceGraphic" in2="effect1_backgroundBlur_104_7652" result="shape">
                                    </feBlend>

                                    </filter>
</defs>
</svg>