<svg width="64" height="64" viewBox="0 0 64 64" fill="none" xmlns="http://www.w3.org/2000/svg">
<g filter="url(#filter0_b_104_7811)">
<path fill-rule="evenodd" clip-rule="evenodd" d="M20 12H40V16H48V20H52V24H56V36H52V40H48V44H40V52H20V48H12V44H8V24H12V20H16V16H20V12ZM12 28V32H16V28H12ZM12 36V40H16V36H12ZM48 36V28H40V36H48ZM24 44V40H20V44H24ZM32 16H28V20H32V16ZM20 24V20H24V24H20Z" fill="black"/>
</g>
<defs>
<filter id="filter0_b_104_7811" x="-2" y="-2" width="68" height="68" filterUnits="userSpaceOnUse" color-interpolation-filters="sRGB">
<feFlood flood-opacity="0" result="BackgroundImageFix"/>
<feGaussianBlur in="BackgroundImageFix" stdDeviation="1"/>
<feComposite in2="SourceAlpha" operator="in" result="effect1_backgroundBlur_104_7811"/>
<feBlend mode="normal" in="SourceGraphic" in2="effect1_backgroundBlur_104_7811" result="shape"/>
</filter>
</defs>
</svg>
